<?xml version="1.0" standalone="no"?>
<!DOCTYPE svg PUBLIC "-//W3C//DTD SVG 20010904//EN"
 "http://www.w3.org/TR/2001/REC-SVG-20010904/DTD/svg10.dtd">
<svg version="1.0" xmlns="http://www.w3.org/2000/svg"
 width="1000.000000pt" height="1000.000000pt" viewBox="0 0 1000.000000 1000.000000"
 preserveAspectRatio="xMidYMid meet">
<metadata>
Created by potrace 1.14, written by Peter Selinger 2001-2017
</metadata>
<g transform="translate(0.000000,1000.000000) scale(0.100000,-0.100000)"
fill="#000000" stroke="none">
<path d="M0 5000 l0 -5000 5000 0 5000 0 0 5000 0 5000 -5000 0 -5000 0 0
-5000z m6338 3229 c36 -18 146 -142 659 -748 339 -399 622 -742 631 -761 19
-44 19 -135 1 -177 -24 -56 -888 -1122 -915 -1129 -61 -16 -117 41 -95 96 5
14 194 255 420 535 l411 510 -747 3 c-411 1 -750 -1 -754 -5 -4 -5 -66 -226
-138 -493 -156 -575 -157 -576 -184 -595 -47 -33 -117 1 -117 57 0 16 61 255
136 529 75 275 135 501 133 503 -2 2 -352 6 -776 10 -572 4 -773 3 -773 -5 0
-7 61 -238 135 -514 74 -276 135 -515 135 -530 0 -37 -36 -75 -71 -75 -63 0
-63 -2 -219 581 l-147 544 -751 3 c-414 1 -752 0 -752 -3 0 -3 187 -239 415
-524 372 -464 415 -522 415 -554 0 -55 -54 -90 -105 -70 -10 3 -217 256 -461
561 -381 476 -447 563 -460 608 -17 59 -12 108 17 164 9 19 252 305 539 635
736 846 716 824 764 846 39 18 91 19 1325 19 l1285 0 44 -21z m-1966 -2922
c34 -17 307 -249 336 -285 36 -46 -5 -122 -65 -122 -28 0 -53 17 -160 113 -71
62 -141 122 -157 135 -28 22 -31 22 -391 22 l-363 0 -444 -145 c-541 -177
-522 -170 -537 -201 -16 -35 -16 -1322 0 -1357 16 -36 50 -47 145 -47 98 0
134 -12 194 -66 73 -66 86 -113 45 -158 -38 -41 -75 -35 -130 21 l-45 48 -113
5 c-103 5 -118 8 -155 33 -23 15 -54 46 -69 69 l-28 42 -3 721 -2 721 23 44
c44 83 57 89 553 251 252 83 482 157 509 164 39 11 131 14 435 12 351 -2 388
-4 422 -20z m1057 -951 c36 -19 1199 -1196 1227 -1243 32 -51 46 -138 34 -202
-28 -149 -136 -248 -281 -259 l-67 -5 -5 -48 c-12 -96 -74 -181 -169 -229 -53
-26 -72 -30 -140 -30 -75 0 -78 -1 -78 -23 0 -13 -14 -52 -31 -86 -53 -105
-160 -171 -279 -171 l-47 0 -6 -40 c-12 -91 -78 -180 -170 -227 -45 -23 -64
-27 -137 -27 -111 0 -147 18 -267 137 -76 75 -93 97 -93 121 0 42 35 76 78 76
29 0 46 -12 121 -84 66 -64 97 -86 124 -91 83 -16 153 22 182 99 14 36 15 50
5 87 -10 38 -41 73 -231 264 -224 226 -233 237 -213 290 9 23 61 47 87 39 12
-3 128 -111 257 -239 153 -152 245 -236 263 -241 16 -3 49 -4 73 -1 84 9 145
97 129 184 -6 33 -40 71 -256 289 -235 236 -249 252 -249 287 0 49 28 77 77
77 34 0 52 -16 318 -280 297 -295 286 -287 370 -281 80 7 143 92 130 174 -7
39 -30 65 -286 323 -263 265 -279 283 -279 317 0 49 28 77 77 77 35 0 51 -14
318 -279 154 -153 290 -284 302 -290 33 -17 104 -13 143 7 39 21 80 89 80 135
0 15 -7 42 -16 60 -9 18 -283 300 -610 627 -591 592 -594 596 -594 636 0 40
16 64 50 77 24 9 29 8 59 -7z"/>
<path d="M3820 8088 c0 -22 325 -1228 331 -1228 6 0 709 1224 709 1234 0 3
-234 6 -520 6 -409 0 -520 -3 -520 -12z"/>
<path d="M5140 8094 c0 -10 714 -1244 720 -1244 5 0 341 1227 340 1243 0 8
-1060 10 -1060 1z"/>
<path d="M3119 7374 l-556 -639 724 -8 c399 -5 726 -7 729 -5 3 3 -309 1183
-339 1282 -2 5 -253 -279 -558 -630z"/>
<path d="M4627 7368 c-202 -353 -366 -643 -364 -645 2 -2 337 -2 744 -1 l740
3 -371 642 c-204 354 -373 643 -376 643 -3 0 -170 -289 -373 -642z"/>
<path d="M6321 7933 c-11 -43 -90 -332 -175 -643 -85 -311 -152 -567 -149
-570 2 -3 329 -7 726 -8 693 -4 720 -3 706 14 -14 18 -1065 1262 -1079 1277
-4 5 -17 -27 -29 -70z"/>
</g>
</svg>
